# xmcd
#
# Track frame offsets:
#	150
#	12410
#	22782
#	34925
#	45755
#	56311
#	68985
#	80174
#	91584
#	101511
#	118736
#	128050
#	138551
#	149244
#	162960
#	174037
#	185729
#	195380
#	207374
#	218249
#	231348
#	243745
#	255549
#	266226
#	277401
#	289158
#	300186
#	310418
#	321853
#	334023
#
# Disc length: 4622 seconds
#
# Revision: 0
# Processed by: cddbd v1.4PL0 Copyright (c) Steve Scherf et al.
# Submitted via: EasyCDDAExtractor 4.6.0.1
#
DISCID=bd120c1e
DTITLE=Various Artist - A Million Dollars Worth Of Doo-Wop
DYEAR=1900
DGENRE=blues
TTITLE0=Impalas - Why
TTITLE1=Marquees - Ecstacy
TTITLE2=Lovers (Peter Pete and the) - A Lonely Island
TTITLE3=Dwellers - Lonely Guy
TTITLE4=Dino Matthews and group - The Girl That I Love
TTITLE5=Crowns (Henry Strogin and the) - Why Do You Go Away
TTITLE6=Dee Cals - Stars In The Blue, What Should I Do
TTITLE7=Enchanters - I Need Your Love
TTITLE8=Execs - Walking In The Rain
TTITLE9=Infascinations - I'm So In Love
TTITLE10=Lyrics (Kenneth Churchill and the) - Fate Of Rock And Roll
TTITLE11=Chestnuts (Ruby Whitaker and the) - Who Knows Better Than I
TTITLE12=Chalons - Oh You
TTITLE13=Corvets - I'm Going To Cry
TTITLE14=Fi-Dels - Please Come Back
TTITLE15=Lyrics - You
TTITLE16=Five Masqueraders - Nature's Beauty
TTITLE17=Five Superiors - There's A Fool Born Every Day
TTITLE18=Esquireres - The Girl In Chinatown
TTITLE19=Shields - You Told A Lie
TTITLE20=Glen Madison and group - When You Dance
TTITLE21=Impossibles - Chapel Bells
TTITLE22=Masquerades - Fanessa
TTITLE23=Magic Notes - Rosabel
TTITLE24=El Pollos - These Four Letters
TTITLE25=Climbers - My Darling Dear
TTITLE26=Legends - Well Darling
TTITLE27=Uneeks - Look At Me
TTITLE28=Arcados - When You Walked Out
TTITLE29=Cosmic Rays - Bye Bye
EXTD=
EXTT0=
EXTT1=
EXTT2=
EXTT3=
EXTT4=
EXTT5=
EXTT6=
EXTT7=
EXTT8=
EXTT9=
EXTT10=
EXTT11=
EXTT12=
EXTT13=
EXTT14=
EXTT15=
EXTT16=
EXTT17=
EXTT18=
EXTT19=
EXTT20=
EXTT21=
EXTT22=
EXTT23=
EXTT24=
EXTT25=
EXTT26=
EXTT27=
EXTT28=
EXTT29=
PLAYORDER=
